<?xml version="1.0" encoding="iso-8859-1"?>
<!-- Generator: Adobe Illustrator 19.0.0, SVG Export Plug-In . SVG Version: 6.00 Build 0)  -->
<svg version="1.1" id="Capa_1" xmlns="http://www.w3.org/2000/svg" xmlns:xlink="http://www.w3.org/1999/xlink" x="0px" y="0px"
	 viewBox="0 0 512.003 512.003" style="enable-background:new 0 0 512.003 512.003;" xml:space="preserve">
<path style="fill:#74CD80;" d="M269.351,178.168c-8.875,0.438-16.173-6.86-15.735-15.735c1.282-25.97,8.317-78.054,42.587-112.324
	S382.557,8.804,408.527,7.522c8.875-0.438,16.173,6.86,15.735,15.735c-1.283,25.97-8.317,78.054-42.587,112.324
	C347.404,169.851,295.32,176.886,269.351,178.168z"/>
<path style="opacity:0.15;enable-background:new    ;" d="M319.002,120.282c-1.919,0-3.839-0.732-5.304-2.197
	c-2.929-2.929-2.929-7.678,0-10.606l39.874-39.874c2.93-2.929,7.678-2.929,10.607,0s2.929,7.678,0,10.606l-39.874,39.874
	C322.84,119.55,320.92,120.282,319.002,120.282z"/>
<path style="opacity:0.1;enable-background:new    ;" d="M327.977,89.252c-23.102,0-44.673,6.546-62.965,17.881
	c-0.707,0.438-1.425,0.848-2.154,1.231c-6.444,20.923-8.591,40.87-9.243,54.07c-0.438,8.875,6.86,16.173,15.735,15.735
	c25.97-1.282,78.054-8.317,112.324-42.587c6.963-6.963,12.785-14.668,17.68-22.734C379.422,98.025,354.725,89.252,327.977,89.252z"
	/>
<path style="fill:#806761;" d="M258.902,180.675c-8.578,0-15.531-6.954-15.531-15.531c0-42.946-13.313-74.61-40.7-96.803
	c-6.665-5.4-7.689-15.181-2.289-21.845c5.4-6.665,15.181-7.688,21.845-2.289c34.642,28.072,52.207,68.761,52.207,120.936
	C274.434,173.722,267.48,180.675,258.902,180.675z"/>
<path style="opacity:0.1;enable-background:new    ;" d="M269.657,121.173c-10.354,4.393-22.331,3.583-32.076-2.456
	c-0.289-0.179-0.587-0.347-0.877-0.523c4.461,13.863,6.667,29.472,6.667,46.95c0,8.578,6.954,15.531,15.531,15.531
	c8.578,0,15.531-6.954,15.531-15.531C274.434,149.432,272.829,134.77,269.657,121.173z"/>
<path id="SVGCleanerId_0" style="fill:#DC5371;" d="M337.387,122.871c-23.102,0-44.673,6.546-62.965,17.881
	c-11.282,6.991-25.56,6.991-36.841,0c-18.292-11.335-39.863-17.881-62.965-17.881c-66.128,0-119.736,53.607-119.736,119.736
	c0,74.437,73.294,211.845,103.68,242.231l0.013-0.004c11.752,12.124,28.199,19.67,46.417,19.67c11.849,0,22.95-3.191,32.496-8.759
	c11.393-6.645,25.638-6.645,37.03,0c9.546,5.568,20.646,8.759,32.496,8.759c18.218,0,34.665-7.546,46.417-19.669l0.013,0.004
	c30.386-30.386,103.68-167.793,103.68-242.231C457.123,176.479,403.515,122.871,337.387,122.871z"/>
<g>
	<path id="SVGCleanerId_0_1_" style="fill:#DC5371;" d="M337.387,122.871c-23.102,0-44.673,6.546-62.965,17.881
		c-11.282,6.991-25.56,6.991-36.841,0c-18.292-11.335-39.863-17.881-62.965-17.881c-66.128,0-119.736,53.607-119.736,119.736
		c0,74.437,73.294,211.845,103.68,242.231l0.013-0.004c11.752,12.124,28.199,19.67,46.417,19.67c11.849,0,22.95-3.191,32.496-8.759
		c11.393-6.645,25.638-6.645,37.03,0c9.546,5.568,20.646,8.759,32.496,8.759c18.218,0,34.665-7.546,46.417-19.669l0.013,0.004
		c30.386-30.386,103.68-167.793,103.68-242.231C457.123,176.479,403.515,122.871,337.387,122.871z"/>
</g>
<path style="opacity:0.1;enable-background:new    ;" d="M368.437,126.946c30.407,22.182,50.17,58.08,50.17,98.6
	c0,75.83-74.666,215.808-105.62,246.762l-0.013-0.004c-11.784,12.156-28.205,19.778-46.415,20.015
	c2.751,0.82,5.427,1.949,7.959,3.426c9.546,5.568,20.646,8.759,32.496,8.759c18.218,0,34.665-7.546,46.417-19.669l0.013,0.003
	c30.386-30.386,103.68-167.793,103.68-242.231C457.123,187.219,419.511,140.623,368.437,126.946z"/>
<path d="M104.7,382.54c-26.895-56.434-42.32-107.437-42.32-139.933c0-61.887,50.349-112.236,112.236-112.236
	c20.917,0,41.324,5.794,59.014,16.756c13.258,8.214,29.597,8.514,43.098,0.941c0.072-0.039,0.143-0.081,0.213-0.122
	c0.478-0.272,0.961-0.528,1.432-0.82c17.69-10.962,38.097-16.756,59.015-16.756c15.427,0,30.314,3.138,43.936,8.92
	c0.209,0.101,0.421,0.192,0.637,0.273c26.011,11.232,47.337,32.146,58.846,59.358c1.614,3.816,6.013,5.598,9.829,3.986
	c3.814-1.614,5.6-6.015,3.985-9.83c-11.736-27.748-32.48-49.714-57.991-63.117c27.538-35.035,33.871-80.981,35.123-106.335
	c0.313-6.341-2.079-12.55-6.563-17.033c-4.484-4.484-10.703-6.885-17.034-6.563c-9.148,0.452-23.363,1.713-39.125,5.161
	c-4.046,0.885-6.609,4.882-5.725,8.929c0.886,4.046,4.877,6.613,8.93,5.724c14.754-3.227,28.079-4.409,36.66-4.833
	c2.156-0.099,4.17,0.671,5.688,2.188c1.517,1.517,2.293,3.536,2.187,5.687c-2.659,53.858-21.327,85.204-34.299,100.709
	c-14.136-5.343-29.361-8.225-45.084-8.225c-20.419,0-40.407,4.885-58.379,14.178c-1.574-9.105-3.782-17.795-6.621-26.057
	c6.935-19.506,16.717-35.679,29.119-48.08c10.911-10.911,24.786-19.84,41.24-26.539c3.836-1.561,5.68-5.938,4.118-9.774
	c-1.561-3.836-5.938-5.682-9.774-4.118c-18.316,7.457-33.858,17.491-46.191,29.825c-10.747,10.747-19.71,23.892-26.776,39.208
	c-9.019-17.615-21.427-32.873-37.174-45.633c-9.867-7.996-24.399-6.473-32.394,3.394s-6.472,24.399,3.394,32.394
	c17.328,14.042,28.513,32.085,33.972,54.839c-17.694-8.937-37.292-13.637-57.305-13.637c-70.158,0-127.236,57.078-127.236,127.236
	c0,47.44,27.429,112.078,43.779,146.386c1.286,2.698,3.974,4.275,6.776,4.275c1.081,0,2.18-0.235,3.221-0.731
	C104.896,390.755,106.482,386.279,104.7,382.54z M207.392,62.514c-3.44-2.788-3.971-7.855-1.183-11.296
	c2.788-3.441,7.855-3.972,11.296-1.183c26.3,21.312,42.255,50.549,47.491,86.952c-5.22,1.825-10.824,2.017-16.125,0.578
	C244.026,105.774,230.433,81.184,207.392,62.514z M463.849,228.495c-0.455-4.117-4.157-7.091-8.277-6.632
	c-4.117,0.454-7.087,4.16-6.633,8.277c0.454,4.11,0.684,8.304,0.684,12.468c0,42.817-24.9,102.626-39.743,134.466
	c-17.577,37.708-44.27,84.776-61.469,102.188c-0.125,0.113-0.247,0.23-0.365,0.353c-10.871,11.214-25.443,17.39-41.033,17.39
	c-10.107,0-20.037-2.676-28.717-7.737c-13.751-8.021-30.836-8.021-44.587,0c-8.679,5.061-18.609,7.737-28.717,7.737
	c-15.59,0-30.162-6.176-41.032-17.39c-0.121-0.124-0.245-0.244-0.372-0.358c-11.082-11.234-28.293-37.67-45.025-69.177
	c-1.943-3.659-6.482-5.048-10.142-3.106c-3.658,1.943-5.049,6.483-3.106,10.142c17.788,33.495,35.71,60.794,47.943,73.028
	c0.079,0.079,0.159,0.155,0.24,0.23c13.687,13.95,31.956,21.629,51.493,21.629c12.76,0,25.304-3.382,36.275-9.78
	c9.09-5.302,20.384-5.301,29.473,0c10.971,6.398,23.514,9.78,36.273,9.78c19.54,0,37.814-7.682,51.502-21.64
	c0.078-0.072,0.156-0.147,0.232-0.223c16.516-16.516,43.134-60.405,64.729-106.73c15.367-32.966,41.147-95.094,41.147-140.804
	C464.623,237.896,464.362,233.148,463.849,228.495z M341.216,215.328v10.223c0,4.142,3.358,7.5,7.5,7.5c4.143,0,7.5-3.358,7.5-7.5
	v-10.223c0-4.142-3.357-7.5-7.5-7.5C344.574,207.828,341.216,211.186,341.216,215.328z M268.077,232.754
	c-2.107,4.788-6.847,7.881-12.075,7.881c-5.229,0-9.969-3.094-12.076-7.882c-1.668-3.792-6.095-5.514-9.885-3.844
	c-3.792,1.668-5.513,6.094-3.844,9.885c4.501,10.23,14.63,16.841,25.805,16.841c11.174,0,21.302-6.609,25.804-16.838
	c1.669-3.791-0.052-8.217-3.843-9.886C274.172,227.243,269.746,228.963,268.077,232.754z M155.787,215.328v10.223
	c0,4.142,3.358,7.5,7.5,7.5s7.5-3.358,7.5-7.5v-10.223c0-4.142-3.358-7.5-7.5-7.5C159.145,207.828,155.787,211.186,155.787,215.328z
	"/>
<g>
</g>
<g>
</g>
<g>
</g>
<g>
</g>
<g>
</g>
<g>
</g>
<g>
</g>
<g>
</g>
<g>
</g>
<g>
</g>
<g>
</g>
<g>
</g>
<g>
</g>
<g>
</g>
<g>
</g>
</svg>
