<?xml version="1.0" encoding="iso-8859-1"?>
<!-- Generator: Adobe Illustrator 19.0.0, SVG Export Plug-In . SVG Version: 6.00 Build 0)  -->
<svg version="1.1" id="Capa_1" xmlns="http://www.w3.org/2000/svg" xmlns:xlink="http://www.w3.org/1999/xlink" x="0px" y="0px"
	 viewBox="0 0 511.998 511.998" style="enable-background:new 0 0 511.998 511.998;" xml:space="preserve">
<path style="fill:#FF6536;" d="M379.397,287.768h65.586c9.654-40.339-20.432-77.824-60.555-77.824
	c-11.82,0-23.871,3.291-33.285,9.012C374.847,233.352,385.773,261.116,379.397,287.768z"/>
<path style="fill:#F95428;" d="M390.732,287.768c-4.614-28.158,5.575-53.24,24.805-69.489
	c-20.809-12.027-46.218-10.368-64.394,0.677c23.704,14.397,34.63,42.16,28.254,68.813L390.732,287.768L390.732,287.768z"/>
<path style="fill:#93482B;" d="M433.352,449.494l44.365-132.586c-24.468,0-418.508,0-443.436,0l44.366,132.586
	c0.1,0.262,11.836,30.965,46.562,30.965H256h130.788C421.516,480.459,433.252,449.756,433.352,449.494z"/>
<path style="fill:#843A24;" d="M90.934,373.309c0-19.939,3.87-38.973,10.887-56.4h-67.54l44.366,132.586
	c0.1,0.262,11.836,30.965,46.562,30.965h10.289C107.975,453.09,90.934,415.19,90.934,373.309z"/>
<path style="fill:#9AD14B;" d="M222.419,134.186c-8.537-13.782-29.052-12.68-35.95,2.072c-0.499,1.065-0.428,2.311,0.188,3.314
	c3.741,6.093,10.249,9.73,17.41,9.73c0.393,0,0.787-0.012,1.188-0.034c7.518-0.431,14.171-4.936,17.361-11.755
	C223.115,136.441,223.042,135.19,222.419,134.186z"/>
<path style="fill:#80AD1F;" d="M116.054,287.768c-1.105-11.209,0.231-21.716,3.482-31.232c-4.772-6.346-13.343-10.469-21.896-10.469
	c-14.446,0-26.157,11.711-26.157,26.156c0,5.383,1.63,11.385,4.418,15.545H116.054L116.054,287.768z"/>
<path style="fill:#78991D;" d="M110.385,249.115c-18.643-9.268-38.901,3.792-38.901,23.107c0,5.383,1.63,11.385,4.418,15.545h25
	C92.731,275.576,95.707,256.916,110.385,249.115z"/>
<path style="fill:#9AD14B;" d="M257.223,287.768c1.104-11.198-0.196-22.2-3.96-32.592c-4.625-12.564-10.626-20.074-19.063-28.355
	c-0.043-0.1-5.065-4.827-5.143-12.119v-3.289c0-23.701-19.216-42.92-42.917-42.92c-0.001,0-0.002,0-0.003,0
	c-23.7,0-42.917,19.219-42.917,42.92v3.289c-0.078,7.286-5.098,12.019-5.141,12.119c-0.078,0.11-26.914,21.51-23.025,60.947H257.223
	z"/>
<path style="fill:#93C43D;" d="M163.079,230.82c0.043-0.1,5.063-4.835,5.141-12.119v-3.289c0-21.66,16.053-39.567,36.907-42.492
	c-5.726-2.83-12.168-4.428-18.987-4.428c0,0,0,0-0.001,0h-0.002c-23.7,0-42.917,19.219-42.917,42.92v3.289
	c-0.076,7.152-5.243,12.357-5.141,12.119c-0.078,0.11-26.914,21.51-23.025,60.947h24.739
	C138.207,249.597,163.229,230.612,163.079,230.82z"/>
<path style="fill:#FF822E;" d="M380.413,287.768c9.653-40.334-20.432-77.824-60.555-77.824c-40.198,0-70.19,37.538-60.557,77.824
	H380.413z"/>
<path style="fill:#ED6C24;" d="M332.358,211.199c-4.039-0.822-8.218-1.256-12.5-1.256c-40.198,0-70.19,37.538-60.557,77.824h25
	C275.753,252.019,298.411,218.116,332.358,211.199z"/>
<path style="fill:#F2D59F;" d="M55.602,286.768v-22.98c0-110.891,90.215-201.106,201.103-201.106
	c110.889,0,201.104,90.215,201.104,201.106v22.98c18.268,0,12.822,0,31.141,0v-22.98c0-128.061-104.184-232.246-232.244-232.246
	c-128.059,0-232.243,104.186-232.243,232.246v22.98H55.602z"/>
<path style="fill:#EDBF77;" d="M256.705,48.084c-119.759,0-217.19,97.433-217.19,217.192v21.491h16.086v-22.98
	c0-110.891,90.215-201.106,201.103-201.106c110.889,0,201.104,90.215,201.104,201.106v22.98c9.313,0,6.679,0,16.087,0v-21.491
	C473.896,145.517,376.466,48.084,256.705,48.084z"/>
<path style="fill:#F6B138;" d="M488.928,317.908H23.071c-8.6,0-15.57-6.971-15.57-15.57c0-8.602,6.971-15.57,15.57-15.57h465.857
	c8.6,0,15.57,6.969,15.57,15.57C504.498,310.938,497.528,317.908,488.928,317.908z"/>
<path style="fill:#F2902F;" d="M488.928,302.338H23.071c-5.76,0-10.778-3.136-13.471-7.785
	c-5.953,10.273,1.416,23.355,13.471,23.355h465.857c12.061,0,19.42-13.088,13.471-23.355
	C499.706,299.202,494.688,302.338,488.928,302.338z"/>
<path d="M496.449,280.533c-1.244-7.213,11.16-101.505-66.967-182.776c-2.871-2.987-7.619-3.078-10.604-0.21
	c-2.986,2.871-3.08,7.619-0.21,10.604c73.174,76.12,61.623,164.412,62.781,171.116h-16.141v-15.48
	c0-165.272-183.195-263.357-320.283-176.127c-32.486,20.671-58.628,49.817-75.598,84.29c-1.829,3.716-0.3,8.212,3.417,10.041
	c3.717,1.83,8.211,0.3,10.042-3.416c15.755-32.004,40.027-59.066,70.193-78.26c121.503-77.314,284.252,1.937,296.523,147.015
	c-9.153-23.88-31.058-41.486-57.344-44.436c-1.874-18.588-11.064-30.448-18.914-37.329c-3.113-2.73-7.853-2.418-10.583,0.696
	s-2.419,7.853,0.696,10.583c7.725,6.772,12.31,15.492,13.695,25.979c-8.759,0.914-17.256,3.474-25.046,7.549
	c-7.456-3.903-15.695-6.5-24.421-7.479c-1.873-18.591-11.063-30.449-18.913-37.33c-3.113-2.729-7.852-2.417-10.584,0.697
	c-2.729,3.115-2.418,7.854,0.697,10.584c7.725,6.77,12.309,15.49,13.694,25.978c-25.092,2.612-46.257,18.583-56.279,40.648
	c-0.298-0.474-2.889-6.069-8.875-13.545l0,0c-9.181-11.305-10.418-7.389-10.87-18.515c0-25.375-18.845-46.422-43.273-49.904
	c-0.376-3.712-1.041-7.158-1.932-10.347c15.063,11.355,36.729,4.815,43.116-12.799c0.7-1.932,0.578-4.065-0.339-5.903
	c-10.65-21.358-41.574-20.423-50.815,1.695c-2.865-4.071-5.996-7.355-8.939-9.936c-3.115-2.73-7.854-2.42-10.584,0.695
	c-2.731,3.114-2.42,7.853,0.694,10.584c7.762,6.805,12.351,15.576,13.713,26.126c-24.041,3.82-42.478,24.689-42.478,49.789
	c-0.069,1.702,0.551,6.46-2.846,10.003c-7.299,6.675-13.096,14.537-17.099,22.453c-24.727-15.924-57.325,5.949-51.039,35.4H63.1
	c0.463-9.379-2.311-35.032,7.604-69.269c1.152-3.979-1.139-8.138-5.118-9.29c-3.978-1.152-8.138,1.139-9.291,5.118
	c-10.615,36.652-7.717,63.948-8.196,73.44h-16.14v-15.48c0-123.926,100.819-224.746,224.743-224.746
	c49.884,0,97.163,16.081,136.728,46.504c3.285,2.524,7.993,1.908,10.518-1.373c2.525-3.284,1.91-7.993-1.373-10.518
	c-42.21-32.457-92.651-49.613-145.872-49.613c-132.195,0-239.743,107.55-239.743,239.746v16.308C7.197,282.78,0,291.732,0,302.338
	c0,12.721,10.349,23.07,23.07,23.07h5.825l42.646,126.483c0.031,0.091,0.063,0.182,0.098,0.271
	c0.556,1.462,14.078,35.797,53.572,35.797h261.578c39.495,0,53.017-34.335,53.573-35.797c0.084-0.22-1.873,5.566,42.741-126.754
	h5.825c12.721,0,23.07-10.35,23.07-23.07C511.998,292.251,505.487,283.66,496.449,280.533z M218.775,136.301
	c-4.808,6.836-14.738,7.38-20.277,1.164C203.302,130.641,213.231,130.078,218.775,136.301z M384.428,217.443
	c32.985,0,58.578,29.087,54.322,61.824h-49.479c2.204-21.546-5.627-43.596-22.641-58.865
	C372.321,218.452,378.333,217.443,384.428,217.443z M319.857,217.443c33.086,0,58.598,29.232,54.296,61.824H265.535
	C261.286,246.698,286.724,217.443,319.857,217.443z M97.641,253.566c4.684,0,9.075,1.72,12.474,4.809
	c-1.862,6.589-2.874,13.764-2.912,20.893H80.361C75.377,267.067,84.379,253.566,97.641,253.566z M436.28,417.335l-12.318-17.661
	l22.748-32.613l4.395,6.302L436.28,417.335z M446.71,340.843l-10.766-15.434h21.532L446.71,340.843z M417.655,325.408l19.91,28.544
	l-22.748,32.612l-22.747-32.612l19.91-28.545h5.675V325.408z M347.513,472.959l-19.226-27.563l22.747-32.611l22.747,32.611
	l-19.226,27.563H347.513z M219.919,472.959c-0.436-0.71,1.511,2.153-19.199-27.563l22.747-32.611l22.747,32.611l-19.226,27.563
	H219.919z M156.163,472.959l-19.226-27.563l22.747-32.611l22.747,32.611l-19.226,27.563H156.163z M127.793,432.286l-22.748-32.612
	l22.747-32.611l22.747,32.612L127.793,432.286z M168.829,399.675l22.747-32.611l22.747,32.611l-22.747,32.611L168.829,399.675z
	 M191.576,458.506l10.082,14.453h-20.163L191.576,458.506z M232.612,399.675l22.747-32.611l22.747,32.61l-22.747,32.612
	L232.612,399.675z M255.358,458.506l10.081,14.453h-20.163L255.358,458.506z M264.503,445.396l22.747-32.612l22.748,32.612
	c-6.368,9.138-18.843,26.985-19.199,27.563h-7.188C283.071,471.86,283.985,473.397,264.503,445.396z M296.394,399.674l22.747-32.612
	l22.748,32.612l-22.747,32.612L296.394,399.674z M319.142,458.506l10.081,14.453h-20.162L319.142,458.506z M360.178,399.675
	l22.747-32.612l22.747,32.612l-22.747,32.611L360.178,399.675z M382.925,340.843l-10.766-15.435h21.532L382.925,340.843z
	 M353.871,325.408l19.91,28.545l-22.747,32.612l-22.748-32.612l19.91-28.544L353.871,325.408L353.871,325.408z M319.141,340.843
	l-10.766-15.434h21.531L319.141,340.843z M290.087,325.408l19.91,28.544l-22.747,32.612l-22.747-32.61l19.911-28.546H290.087z
	 M255.358,340.844l-10.767-15.436h21.534L255.358,340.844z M226.302,325.408l19.912,28.546l-22.747,32.611l-22.747-32.611
	l19.911-28.545L226.302,325.408L226.302,325.408z M191.576,340.843l-10.766-15.435h21.533L191.576,340.843z M162.521,325.408
	l19.911,28.545l-22.747,32.611l-22.747-32.611l19.911-28.545H162.521z M127.792,340.844l-10.767-15.435h21.533L127.792,340.844z
	 M98.737,325.408l19.911,28.545L95.9,386.564l-22.747-32.611l19.91-28.545L98.737,325.408L98.737,325.408z M60.477,372.127
	l3.532-5.064l22.747,32.611l-11.454,16.421L60.477,372.127z M64.008,340.843l-10.766-15.435h21.532L64.008,340.843z M85.697,446.927
	l-4.436-13.156L95.9,412.784l22.748,32.612l-15.22,21.82C91.233,459.977,86.251,448.304,85.697,446.927z M118.088,472.418
	l9.704-13.913l10.081,14.453C126.791,472.835,123.697,473.281,118.088,472.418z M372.843,472.959l10.082-14.453l9.815,14.071
	C387.795,473.203,385.586,472.858,372.843,472.959z M426.305,446.921c-0.592,1.469-5.822,13.647-18.652,20.816l-15.583-22.341
	l22.747-32.611c3.481,4.986,15.009,21.54,15.51,22.208L426.305,446.921z M488.928,310.408c-51.794,0-414.433,0-465.857,0
	c-4.45,0-8.07-3.62-8.07-8.07s3.62-8.07,8.07-8.07c7.956,0,18.045,0,32.531,0h20.3c7.203,0,111.096,0,117.832,0
	c4.142,0,7.5-3.357,7.5-7.5s-3.358-7.5-7.5-7.5h-71.526c0.122-18.518,8.114-35.215,20.832-46.821
	c8.835-7.845,7.661-20.927,7.681-21.034c0-19.53,15.888-35.42,35.42-35.42c19.529,0,35.417,15.89,35.417,35.42
	c0.052,0.267-1.235,12.892,7.619,20.978c12.75,11.607,20.762,28.25,20.895,46.878h-21.337c-4.142,0-7.5,3.357-7.5,7.5
	s3.358,7.5,7.5,7.5c37.641,0,221.634,0,260.194,0c4.45,0,8.07,3.62,8.07,8.07S493.378,310.408,488.928,310.408z"/>
<g>
</g>
<g>
</g>
<g>
</g>
<g>
</g>
<g>
</g>
<g>
</g>
<g>
</g>
<g>
</g>
<g>
</g>
<g>
</g>
<g>
</g>
<g>
</g>
<g>
</g>
<g>
</g>
<g>
</g>
</svg>
